<svg width="131" height="24" viewBox="0 0 131 24" fill="none" xmlns="http://www.w3.org/2000/svg">
<path d="M7.13324 10.6813L9.32605 4.61538H9.43173L11.6245 10.6813H7.13324ZM0 18.4615H4.22711L5.81227 14.2418H12.9455L14.5307 18.4615H18.7578L11.6245 0H7.13324L0 18.4615Z" fill="#727272"/>
<path d="M20.5999 18.4615H24.1665V11.6044C24.1665 9.89011 25.3554 8.7033 26.9406 8.7033C28.4201 8.7033 29.3183 9.62638 29.3183 11.2088V18.4615H32.8849V10.6813C32.8849 7.38462 30.7714 5.27473 28.1294 5.27473C26.8613 5.27473 25.9102 5.8022 25.2761 6.32967C24.9063 6.64615 24.5892 6.98901 24.2986 7.38462H24.1665V5.53846H20.5999V18.4615Z" fill="#727272"/>
<path d="M35.2617 23.6044C35.473 23.6835 35.7108 23.7363 35.9486 23.8154C36.3713 23.9209 36.9789 24 37.6394 24C40.0436 24 41.5759 22.444 42.6591 19.5165L47.943 5.53846H44.1122L41.206 14.1099H41.0739L38.0357 5.53846H34.2049L39.2246 18.3297L38.9604 18.989C38.5641 19.9121 37.9036 20.5714 36.7147 20.5714C36.3184 20.5714 35.975 20.5187 35.6844 20.4396C35.5258 20.4132 35.3937 20.3604 35.2617 20.3077V23.6044Z" fill="#727272"/>
<path d="M55.3342 14.9011C53.6169 14.9011 52.296 13.6088 52.296 11.7363C52.296 9.86374 53.6169 8.57143 55.3342 8.57143C57.0515 8.57143 58.3724 9.86374 58.3724 11.7363C58.3724 13.6088 57.0515 14.9011 55.3342 14.9011ZM49.2577 21.3626C49.6276 21.8637 50.1032 22.2857 50.658 22.6813C51.6091 23.3407 53.0093 24 54.9379 24C59.0329 24 61.9391 21.0989 61.9391 17.1429V5.53846H58.3724V7.38462H58.2403C57.9761 6.98901 57.6591 6.64615 57.2892 6.32967C56.6552 5.8022 55.6512 5.27473 54.2774 5.27473C51.3977 5.27473 48.7294 7.91209 48.7294 11.7363C48.7294 15.5604 51.3977 18.1978 54.2774 18.1978C55.6512 18.1978 56.6552 17.6703 57.2892 17.1429C57.6591 16.8264 57.9761 16.4835 58.2403 16.0879H58.3724V17.1429C58.3724 19.2527 56.9194 20.7033 54.9379 20.7033C53.8811 20.7033 53.0357 20.3077 52.4281 19.9121C52.0846 19.6747 51.7676 19.411 51.5034 19.1209L49.2577 21.3626Z" fill="#727272"/>
<path d="M71.4397 15.4286C69.5904 15.4286 68.1373 13.978 68.1373 12C68.1373 10.022 69.5904 8.57143 71.4397 8.57143C73.2891 8.57143 74.7421 10.022 74.7421 12C74.7421 13.978 73.2891 15.4286 71.4397 15.4286ZM64.5707 12C64.5707 15.6923 67.6089 18.7253 71.4397 18.7253C75.2705 18.7253 78.3088 15.6923 78.3088 12C78.3088 8.30769 75.2705 5.27473 71.4397 5.27473C67.6089 5.27473 64.5707 8.30769 64.5707 12Z" fill="#727272"/>
<path d="M80.9466 18.4615H84.5132V11.6044C84.5132 9.89011 85.7021 8.7033 87.2872 8.7033C88.7667 8.7033 89.665 9.62638 89.665 11.2088V18.4615H93.2316V10.6813C93.2316 7.38462 91.118 5.27473 88.4761 5.27473C87.208 5.27473 86.2569 5.8022 85.6228 6.32967C85.2529 6.64615 84.9359 6.98901 84.6453 7.38462H84.5132V5.53846H80.9466V18.4615Z" fill="#727272"/>
<path d="M102.735 15.4286C100.886 15.4286 99.4329 13.978 99.4329 12C99.4329 10.022 100.886 8.57143 102.735 8.57143C104.585 8.57143 106.038 10.022 106.038 12C106.038 13.978 104.585 15.4286 102.735 15.4286ZM95.8663 12C95.8663 15.6923 98.9045 18.7253 102.735 18.7253C106.566 18.7253 109.604 15.6923 109.604 12C109.604 8.30769 106.566 5.27473 102.735 5.27473C98.9045 5.27473 95.8663 8.30769 95.8663 12Z" fill="#727272"/>
<path d="M114.937 18.4615H118.187L120.644 10.9451H120.749L123.206 18.4615H126.456L131 5.53846H127.169L124.791 13.1868H124.659L122.149 5.53846H119.243L116.734 13.1868H116.601L114.224 5.53846H110.393L114.937 18.4615Z" fill="#727272"/>
</svg>
