<svg width="120" height="112" viewBox="0 0 120 112" fill="none" xmlns="http://www.w3.org/2000/svg">
<path d="M112.408 62.6086C112.408 80.6956 102.651 96.5962 88.1147 105.143C88.1147 105.143 88.0151 105.242 87.9155 105.242C86.9199 105.838 85.9242 106.335 84.9286 106.832C84.4308 107.13 83.933 107.329 83.4351 107.528C83.236 107.627 83.0369 107.727 82.8378 107.826H82.7382C82.5391 107.925 82.2404 108.025 82.0412 108.124C80.5478 108.82 78.9547 109.317 77.3617 109.814C77.1626 109.913 76.8639 110.012 76.6648 110.012C76.5652 110.012 76.4656 110.112 76.3661 110.112C76.2665 110.112 76.1669 110.112 76.1669 110.211C76.0674 110.211 75.9678 110.211 75.8682 110.31C73.7774 110.907 71.587 111.304 69.297 111.602C67.2062 111.901 65.1153 112 63.0245 112C59.6393 112 56.3536 111.702 53.1676 111.006C52.9685 111.006 52.7693 110.907 52.5702 110.907C51.8732 110.807 51.1763 110.609 50.4793 110.41C49.7824 110.211 49.0854 110.012 48.3885 109.814C45.6007 108.919 42.8129 107.826 40.2242 106.534C24.2939 98.2856 13.4414 81.6893 13.4414 62.6086C13.4414 35.2794 35.6443 13.2173 62.9249 13.2173C90.3051 13.2173 112.408 35.2794 112.408 62.6086Z" fill="#EAEEF9"/>
<path d="M58.6435 40.1491C53.8644 36.2733 51.3753 29.8137 52.2713 23.7516C53.267 16.8944 58.1456 15.6025 60.6347 16.6957C62.4269 17.4907 63.5221 19.8758 62.5265 21.6646C60.8339 24.8447 54.3622 23.5528 53.0679 18.087C52.57 16.0994 53.0679 13.9131 54.2626 12.2236C56.2539 9.54038 59.9378 8.54659 63.2234 8.0497C64.0199 8.0497 64.8164 7.95032 65.5134 7.85094C67.3056 7.65218 69.496 7.35404 71.786 7.05591" stroke="#D5DAE8" stroke-miterlimit="10" stroke-linecap="round" stroke-linejoin="round"/>
<path d="M76.7642 8.24834L73.6777 9.63964L74.1756 4.37256" fill="#D5DAE8"/>
<path d="M96.5774 1.78882L95.1835 2.58385L79.0541 11.6273L74.8724 5.46584L74.1754 4.37267L71.1885 0L93.9887 1.59006L96.5774 1.78882Z" fill="#EAEEF9"/>
<path d="M96.5778 1.78885L95.1839 2.58388L74.8727 5.46586L74.1758 4.3727L93.9891 1.59009L96.5778 1.78885Z" fill="#D5DAE8"/>
<path d="M15.2018 33.6602C16.5092 33.236 17.2245 31.8344 16.7996 30.5295C16.3747 29.2246 14.9704 28.5106 13.663 28.9347C12.3557 29.3588 11.6404 30.7605 12.0653 32.0654C12.4902 33.3703 13.8945 34.0843 15.2018 33.6602Z" fill="#EAEEF9"/>
<path d="M20.6355 25.5539C21.5245 25.2655 22.011 24.3124 21.722 23.4251C21.4331 22.5377 20.4781 22.0522 19.5892 22.3406C18.7002 22.629 18.2137 23.5821 18.5027 24.4694C18.7916 25.3568 19.7465 25.8423 20.6355 25.5539Z" fill="#EAEEF9"/>
<path d="M41.086 13.8846C42.6285 12.4776 42.7363 10.0889 41.3267 8.54931C39.9171 7.00968 37.5239 6.90215 35.9814 8.30913C34.4389 9.71611 34.3312 12.1048 35.7408 13.6444C37.1504 15.1841 39.5435 15.2916 41.086 13.8846Z" fill="#EAEEF9"/>
<path d="M118.824 33.2605C119.474 32.6681 119.519 31.6623 118.926 31.0141C118.332 30.3658 117.324 30.3205 116.675 30.9129C116.026 31.5053 115.98 32.5111 116.574 33.1594C117.167 33.8077 118.175 33.8529 118.824 33.2605Z" fill="#EAEEF9"/>
<path d="M77.8598 82.7827V110.112C77.6607 110.211 77.4616 110.211 77.2624 110.311C74.9724 110.907 72.5829 111.404 70.1934 111.702V82.7827H77.8598Z" fill="#4988FD"/>
<path d="M77.8598 82.7827V110.112C77.6607 110.211 77.4616 110.211 77.2624 110.311C74.9724 110.907 72.5829 111.404 70.1934 111.702V82.7827H77.8598Z" fill="white"/>
<path d="M84.9282 82.7827V106.932C84.4304 107.23 83.9326 107.429 83.4348 107.627C83.2356 107.727 83.0365 107.826 82.8374 107.926H82.7378C82.5387 108.025 82.24 108.124 82.0409 108.224C80.5474 108.919 78.9544 109.416 77.3613 109.913V82.7827H84.9282Z" fill="#2767F4"/>
<path d="M84.9282 82.7827V106.932C84.4304 107.23 83.9326 107.429 83.4348 107.627C83.2356 107.727 83.0365 107.826 82.8374 107.926H82.7378C82.5387 108.025 82.24 108.124 82.0409 108.224C80.5474 108.919 78.9544 109.416 77.3613 109.913V82.7827H84.9282Z" fill="#D5DAE8"/>
<path opacity="0.1" d="M84.9282 93.2173V105.242C84.53 105.441 84.1317 105.64 83.7334 105.838C83.5343 105.938 83.3352 106.037 83.1361 106.137H83.0365C82.8374 106.236 82.5387 106.335 82.3395 106.435C80.8461 107.13 79.2531 107.627 77.66 108.124C77.5605 108.124 77.4609 108.223 77.3613 108.223V105.64C77.4609 105.342 77.5605 105.043 77.66 104.745C79.1535 100.869 81.0452 97.7887 83.2356 95.2049C83.7334 94.5092 84.3308 93.8136 84.9282 93.2173Z" fill="#062C78"/>
<path opacity="0.1" d="M84.9289 82.7827H70.1934V91.3293H84.9289V82.7827Z" fill="#062C78"/>
<path d="M116.192 52.5715V83.1802H92.2967V83.2795H44.4062V28.323H89.9072C90.5045 28.2236 91.1019 28.2236 91.7989 28.2236C92.5954 28.2236 93.2923 28.2236 94.0889 28.323C95.0845 28.4224 95.9806 28.5218 96.8767 28.7205C101.556 29.7143 105.738 32.0994 109.024 35.2795C113.504 39.7516 116.192 45.9131 116.192 52.5715Z" fill="url(#paint0_linear_274_1076)"/>
<path d="M96.8767 28.8199V51.5777C96.8767 52.3727 96.2793 52.969 95.4828 52.969C94.6863 52.969 94.0889 52.3727 94.0889 51.5777V28.323C94.9849 28.4224 95.9806 28.6211 96.8767 28.8199Z" fill="url(#paint1_linear_274_1076)"/>
<path d="M95.9799 59.7266C99.0043 59.7266 101.456 57.2795 101.456 54.2608C101.456 51.2421 99.0043 48.7949 95.9799 48.7949C92.9556 48.7949 90.5039 51.2421 90.5039 54.2608C90.5039 57.2795 92.9556 59.7266 95.9799 59.7266Z" fill="#5C71FF"/>
<path d="M96.8763 59.031C100.011 59.031 102.552 56.5839 102.552 53.5652C102.552 50.5465 100.011 48.0994 96.8763 48.0994C93.742 48.0994 91.2012 50.5465 91.2012 53.5652C91.2012 56.5839 93.742 59.031 96.8763 59.031Z" fill="#D5DAE8"/>
<path d="M97.1753 59.031C100.2 59.031 102.651 56.5839 102.651 53.5652C102.651 50.5465 100.2 48.0994 97.1753 48.0994C94.1509 48.0994 91.6992 50.5465 91.6992 53.5652C91.6992 56.5839 94.1509 59.031 97.1753 59.031Z" fill="#EAEEF9"/>
<path d="M97.1748 55.6522C98.3296 55.6522 99.2657 54.7178 99.2657 53.5652C99.2657 52.4126 98.3296 51.4783 97.1748 51.4783C96.0201 51.4783 95.084 52.4126 95.084 53.5652C95.084 54.7178 96.0201 55.6522 97.1748 55.6522Z" fill="#D5DAE8"/>
<path d="M68.2016 50.1864V83.2795H19.415V50.1864C19.415 39.7516 26.7828 31.0062 36.5401 28.8199C38.1331 28.4224 39.7262 28.323 41.4188 28.323H46.397C57.3491 28.323 66.4094 36.2733 68.102 46.8075C68.102 47.8013 68.2016 48.9938 68.2016 50.1864Z" fill="url(#paint2_linear_274_1076)"/>
<path d="M98.7683 27.031V53.3664C98.7683 54.1614 98.1709 54.7577 97.3744 54.7577C96.5778 54.7577 95.9805 54.1614 95.9805 53.3664V27.031H98.7683Z" fill="white"/>
<path d="M60.4354 69.2673C60.4354 71.3543 58.7429 73.0437 56.652 73.0437C17.6228 73.0437 20.1119 73.2425 18.8175 72.4475C17.7223 71.7518 17.0254 70.5593 17.0254 69.2673C19.3154 43.3295 18.9171 43.6276 20.5101 42.1369C22.0036 40.845 19.9128 41.2425 58.7429 41.2425C59.9376 41.2425 61.0328 41.8388 61.7298 42.6338C63.0241 44.3233 62.7254 43.727 60.4354 69.2673Z" fill="white"/>
<path d="M62.1283 43.2299C42.4145 59.9256 42.9124 60.2237 40.025 60.2237C36.9385 60.2237 37.2372 59.8262 19.7139 43.2299C21.2073 40.4473 20.3113 41.2423 58.8427 41.2423C60.2366 41.2423 61.5309 42.0374 62.1283 43.2299Z" fill="#EAEEF9"/>
<path d="M14.6362 48.6956H1.69286C1.09548 48.6956 0.597656 48.1987 0.597656 47.6024C0.597656 47.0062 1.09548 46.5093 1.69286 46.5093H14.6362C15.2336 46.5093 15.7314 47.0062 15.7314 47.6024C15.7314 48.1987 15.2336 48.6956 14.6362 48.6956Z" fill="url(#paint3_linear_274_1076)"/>
<path d="M14.0391 54.8572H6.57177C5.97438 54.8572 5.47656 54.3603 5.47656 53.7641C5.47656 53.1678 5.97438 52.6709 6.57177 52.6709H14.0391C14.6365 52.6709 15.1343 53.1678 15.1343 53.7641C15.1343 54.3603 14.6365 54.8572 14.0391 54.8572Z" fill="url(#paint4_linear_274_1076)"/>
<path d="M13.3414 60.7205H9.15966C8.56228 60.7205 8.06445 60.2236 8.06445 59.6273C8.06445 59.0311 8.56228 58.5342 9.15966 58.5342H13.4409C14.0383 58.5342 14.5361 59.0311 14.5361 59.6273C14.5361 60.2236 14.0383 60.7205 13.3414 60.7205Z" fill="url(#paint5_linear_274_1076)"/>
<path d="M54.7612 60.4224H50.2808C49.9821 60.4224 49.7829 60.6211 49.7829 60.9193L49.6834 61.5155L49.4842 63.1056L49.3847 64.1988L49.1855 65.3913C49.1855 65.4907 49.1855 65.5901 49.1855 65.6894C49.2851 65.8882 49.4842 66.087 49.6834 66.087H54.1638C54.4625 66.087 54.6616 65.8882 54.6616 65.5901L55.259 61.118C55.3585 60.7205 55.1594 60.4224 54.7612 60.4224ZM53.6659 64.4969C53.6659 64.5963 53.5664 64.795 53.3672 64.795H51.1768H50.8781C50.679 64.795 50.5794 64.5963 50.5794 64.4969L50.679 63.7019L50.7786 62.6087L50.8781 62.1118C50.8781 62.0124 50.9777 61.8137 51.1768 61.8137H53.6659C53.8651 61.8137 53.9646 62.0124 53.9646 62.1118L53.6659 64.4969Z" fill="url(#paint6_linear_274_1076)"/>
<path d="M51.1765 61.7144C50.9774 61.7144 50.8778 61.8138 50.8778 62.0126L50.7783 62.5095C50.2804 62.8076 49.8822 63.0064 49.4839 63.1057C49.1852 63.2051 48.8865 63.2051 48.5878 63.2051C47.6918 63.2051 46.9948 62.907 46.3974 62.6088C45.5013 62.2113 45.3022 62.2113 45.0035 62.5095C44.7048 62.8076 44.3066 62.8076 44.0079 62.6088C43.7092 62.3107 43.7092 61.9132 43.9083 61.6151C44.904 60.4225 46.0987 60.9194 46.9948 61.3169C47.8909 61.7144 48.5878 62.1119 49.683 61.5157C49.7826 61.4163 49.9817 61.4163 50.0813 61.3169C50.38 61.1182 50.8778 61.2175 51.0769 61.5157C51.1765 61.5157 51.1765 61.615 51.1765 61.7144Z" fill="url(#paint7_linear_274_1076)"/>
<path d="M51.1766 64.6957L51.077 64.7951C50.3801 65.292 49.7827 65.4907 49.2849 65.5901C49.0857 65.5901 48.8866 65.5901 48.7871 65.5901C47.891 65.5901 47.194 65.292 46.5966 64.9939C45.7006 64.5963 45.5014 64.5963 45.2027 64.8945C44.904 65.1926 44.5058 65.1926 44.2071 64.9939C43.9084 64.6957 43.9084 64.2982 44.1075 64.0001C45.1032 62.8075 46.2979 63.3044 47.0945 63.7019C47.7914 64.0001 48.4884 64.2982 49.2849 64.0994C49.5836 64.0001 49.7827 63.9007 50.181 63.7019C50.2805 63.6025 50.4796 63.6025 50.6788 63.6025L50.5792 64.3976C50.5792 64.5963 50.6788 64.6957 50.8779 64.6957H51.1766Z" fill="url(#paint8_linear_274_1076)"/>
<path opacity="0.5" d="M68.2021 54.7578L67.9034 46.7081C66.2108 36.2733 57.1505 28.2236 46.1984 28.2236H41.2202C39.5276 28.2236 37.9346 28.4224 36.3415 28.7205L35.7441 29.2174L48.0901 79.9007L68.1026 80.9938V54.7578H68.2021Z" fill="url(#paint9_linear_274_1076)"/>
<path d="M112.209 26.1366C112.608 26.4347 112.409 27.1304 111.811 27.1304H98.8678H95.8809V16.2981H111.811C112.309 16.2981 112.608 16.8944 112.209 17.2919L108.028 20.7701C107.43 21.267 107.43 22.1615 108.028 22.6583L112.209 26.1366Z" fill="url(#paint10_linear_274_1076)"/>
<path d="M56.7525 101.963C55.3586 104.05 53.666 107.429 52.6704 110.311C52.5708 110.509 52.4713 110.808 52.4713 111.006C51.7743 110.907 51.0774 110.708 50.3804 110.509C49.783 109.118 49.3848 107.627 49.3848 107.627C49.783 107.131 50.0817 106.733 50.48 106.336C52.3717 103.95 54.363 102.36 56.7525 101.963Z" fill="#B6BED6"/>
<path d="M53.0685 111.106C52.8693 111.106 52.6702 111.006 52.4711 111.006C51.7741 110.907 51.0772 110.708 50.3802 110.509C49.8824 110.41 49.4841 110.211 48.9863 110.112C48.7872 110.013 48.5881 110.013 48.3889 109.913C48.1898 109.814 47.9907 109.814 47.692 109.714C45.1033 108.919 42.6142 107.826 40.2247 106.634C37.7355 102.46 36.3416 97.292 33.9521 90.2361C33.9521 90.1367 33.9521 90.1367 33.8525 90.0374C33.8525 90.0374 34.0517 90.0374 34.5495 90.2361C34.8482 90.4349 35.346 90.6336 35.9434 91.0311C37.1382 91.8262 39.0299 93.2175 41.8177 95.5032C45.3024 98.3852 48.2894 102.658 50.3802 106.236C51.2763 107.826 52.0728 109.217 52.6702 110.311C52.8693 110.509 52.9689 110.808 53.0685 111.106Z" fill="#D5DAE8"/>
<path d="M48.9863 110.013C48.7872 109.913 48.5881 109.913 48.3889 109.814C48.1898 109.714 47.9907 109.714 47.692 109.615C43.112 100.373 37.9347 94.5094 34.8482 91.1305C34.5495 90.733 34.2508 90.4349 33.9521 90.1367C33.9521 90.0374 33.9521 90.0374 33.8525 89.938C33.8525 89.938 34.0517 89.938 34.5495 90.1367C34.8482 90.3355 35.346 90.5343 35.9434 90.9318C39.1294 94.5094 44.4064 100.572 48.9863 110.013Z" fill="#EAEEF9"/>
<path d="M77.8593 110.112C77.9588 110.112 77.9589 110.112 78.0584 110.112C77.9589 110.112 77.7597 110.211 77.6602 110.211C77.6602 110.112 77.7597 110.112 77.8593 110.112Z" fill="#D5DAE8"/>
<path d="M78.1581 110.013C78.2577 110.013 78.2577 110.013 78.3572 109.913C78.2577 109.913 78.0585 110.013 77.959 110.013C78.0585 110.013 78.0586 110.013 78.1581 110.013Z" fill="#D5DAE8"/>
<path d="M95.582 88.2485C95.582 88.2485 95.4825 88.4473 95.2833 88.8448C94.0886 91.0311 90.0064 98.5839 88.1147 105.044C88.1147 105.044 88.0151 105.143 87.9156 105.143C86.9199 105.739 85.9243 106.236 84.9286 106.733C84.4308 107.031 83.933 107.23 83.4352 107.429C83.2361 107.528 83.0369 107.627 82.8378 107.727H82.7382C82.5391 107.826 82.2404 107.926 82.0413 108.025C80.5478 108.721 78.9548 109.217 77.3618 109.714C77.1626 109.814 76.8639 109.913 76.6648 109.913C76.5652 109.913 76.4657 110.013 76.3661 110.013C76.2666 110.013 76.167 110.013 76.167 110.112C76.5652 108.82 76.9635 107.528 77.4613 106.435C78.9548 102.559 80.8465 99.4783 83.0369 96.8945C83.7339 96.0995 84.4308 95.3044 85.1278 94.6088C88.0151 91.7268 91.1016 89.8386 93.989 88.8448C94.3873 88.646 94.9847 88.4473 95.582 88.2485Z" fill="#D5DAE8"/>
<path d="M95.5818 88.2485C95.5818 88.2485 95.4822 88.4473 95.2831 88.8448C91.4996 92.1243 88.0149 97.292 84.9284 103.95C84.4306 105.143 83.9327 106.236 83.4349 107.528C83.2358 107.627 83.0367 107.727 82.8375 107.826H82.738C82.5388 107.926 82.2401 108.025 82.041 108.124C82.1406 107.926 82.2401 107.826 82.2401 107.826C83.1362 105.64 84.0323 103.553 84.9284 101.665C87.6166 96.1988 90.6035 91.8262 93.7896 88.8448C94.387 88.646 94.9844 88.4473 95.5818 88.2485Z" fill="#EAEEF9"/>
<path d="M81.8425 110.211C81.6434 110.708 81.5439 111.205 81.3447 111.702" stroke="white" stroke-miterlimit="10"/>
<path d="M68.2016 46.7081C66.509 36.2733 57.2495 28.2236 46.2974 28.2236H41.3192C39.6266 28.2236 38.0336 28.4224 36.4405 28.7205C29.471 30.3106 23.7959 35.1802 21.0081 41.5404C21.3068 41.3416 21.8046 41.2423 22.8002 41.1429C25.4885 35.6771 30.5662 31.5031 36.7392 30.1118C38.1331 29.8137 39.7262 29.6149 41.2196 29.6149H46.1978C56.3534 29.6149 64.8164 36.8696 66.4094 46.8075C66.6085 47.8013 66.7081 48.8944 66.7081 49.9876V81.5901H20.9085V72.8448C20.112 72.8448 19.7137 72.7454 19.415 72.646V83.0808H68.5003V50.1864C68.5003 48.9938 68.4007 47.8013 68.2016 46.7081Z" fill="#96A7FF"/>
<path d="M68.5003 79.8013V83.2795H1.79216C0.796515 83.2795 0 82.4845 0 81.5901C0 80.5963 0.796515 79.8013 1.79216 79.8013H68.5003Z" fill="#7894FF"/>
<defs>
<linearGradient id="paint0_linear_274_1076" x1="44.4136" y1="55.7831" x2="116.209" y2="55.7831" gradientUnits="userSpaceOnUse">
<stop stop-color="#83A6FF"/>
<stop offset="1" stop-color="#5A78FF"/>
</linearGradient>
<linearGradient id="paint1_linear_274_1076" x1="95.4752" y1="49.5517" x2="95.4752" y2="36.3739" gradientUnits="userSpaceOnUse">
<stop stop-color="#4F6AFF"/>
<stop offset="1" stop-color="#657EFF" stop-opacity="0"/>
</linearGradient>
<linearGradient id="paint2_linear_274_1076" x1="19.3826" y1="55.7483" x2="68.2189" y2="55.7483" gradientUnits="userSpaceOnUse">
<stop stop-color="#627AFF"/>
<stop offset="1" stop-color="#273DD1"/>
</linearGradient>
<linearGradient id="paint3_linear_274_1076" x1="0.599548" y1="47.5665" x2="15.7181" y2="47.5665" gradientUnits="userSpaceOnUse">
<stop stop-color="#FF66A9"/>
<stop offset="1" stop-color="#F53689"/>
</linearGradient>
<linearGradient id="paint4_linear_274_1076" x1="5.44221" y1="53.7628" x2="15.1567" y2="53.7628" gradientUnits="userSpaceOnUse">
<stop stop-color="#FF66A9"/>
<stop offset="1" stop-color="#F53689"/>
</linearGradient>
<linearGradient id="paint5_linear_274_1076" x1="8.03707" y1="59.6318" x2="14.4893" y2="59.6318" gradientUnits="userSpaceOnUse">
<stop stop-color="#FF66A9"/>
<stop offset="1" stop-color="#F53689"/>
</linearGradient>
<linearGradient id="paint6_linear_274_1076" x1="49.1799" y1="63.1925" x2="55.3373" y2="63.1925" gradientUnits="userSpaceOnUse">
<stop stop-color="#FF66A9"/>
<stop offset="1" stop-color="#F53689"/>
</linearGradient>
<linearGradient id="paint7_linear_274_1076" x1="43.8058" y1="62.035" x2="51.2125" y2="62.035" gradientUnits="userSpaceOnUse">
<stop stop-color="#FF66A9"/>
<stop offset="1" stop-color="#F53689"/>
</linearGradient>
<linearGradient id="paint8_linear_274_1076" x1="43.9041" y1="64.506" x2="51.1757" y2="64.506" gradientUnits="userSpaceOnUse">
<stop stop-color="#FF66A9"/>
<stop offset="1" stop-color="#F53689"/>
</linearGradient>
<linearGradient id="paint9_linear_274_1076" x1="66.968" y1="54.0667" x2="46.3617" y2="55.0269" gradientUnits="userSpaceOnUse">
<stop stop-color="#0C1E82"/>
<stop offset="1" stop-color="#001DB5" stop-opacity="0"/>
</linearGradient>
<linearGradient id="paint10_linear_274_1076" x1="95.9875" y1="21.6689" x2="112.445" y2="21.6689" gradientUnits="userSpaceOnUse">
<stop stop-color="#FF66A9"/>
<stop offset="1" stop-color="#F53689"/>
</linearGradient>
</defs>
</svg>
