<svg width="147" height="138" viewBox="0 0 147 138" fill="none" xmlns="http://www.w3.org/2000/svg">
<path d="M72.2302 120C100.221 120 122.911 97.2539 122.911 69.1952C122.911 41.1365 100.221 18.3904 72.2302 18.3904C44.2398 18.3904 21.5491 41.1365 21.5491 69.1952C21.5491 97.2539 44.2398 120 72.2302 120Z" fill="#EAEEF9"/>
<path d="M34.908 36.2793H107.004C109.859 36.2793 112.102 38.5282 112.102 41.3904V87.0841C112.102 89.9463 109.859 92.1952 107.004 92.1952H34.908C32.0528 92.1952 29.8093 89.9463 29.8093 87.0841V41.3904C29.8093 38.5282 32.1547 36.2793 34.908 36.2793Z" fill="#DAE2EB"/>
<path d="M131.139 56.5533C132.719 55.106 132.83 52.649 131.386 51.0653C129.942 49.4816 127.491 49.371 125.911 50.8183C124.331 52.2655 124.221 54.7226 125.665 56.3062C127.109 57.8899 129.56 58.0005 131.139 56.5533Z" fill="#EAEEF9"/>
<path d="M42.944 23.4746C44.283 23.0383 45.0156 21.5965 44.5804 20.2543C44.1452 18.9121 42.707 18.1776 41.368 18.6139C40.029 19.0501 39.2963 20.4919 39.7315 21.8342C40.1668 23.1764 41.605 23.9108 42.944 23.4746Z" fill="#EAEEF9"/>
<path d="M47.9606 15.2214C48.918 15.2214 49.6942 14.4434 49.6942 13.4836C49.6942 12.5239 48.918 11.7458 47.9606 11.7458C47.0032 11.7458 46.2271 12.5239 46.2271 13.4836C46.2271 14.4434 47.0032 15.2214 47.9606 15.2214Z" fill="url(#paint0_linear_1577_7012)"/>
<path d="M130.356 39.5504C131.257 39.5504 131.988 38.8182 131.988 37.9149C131.988 37.0116 131.257 36.2793 130.356 36.2793C129.455 36.2793 128.725 37.0116 128.725 37.9149C128.725 38.8182 129.455 39.5504 130.356 39.5504Z" fill="url(#paint1_linear_1577_7012)"/>
<path d="M90.3389 15.311C90.7963 14.8921 90.8282 14.1808 90.4103 13.7224C89.9924 13.2639 89.2828 13.2319 88.8255 13.6509C88.3682 14.0698 88.3363 14.7811 88.7542 15.2395C89.1721 15.6979 89.8816 15.7299 90.3389 15.311Z" fill="#EAEEF9"/>
<path d="M113.547 65.5977V88.0867C113.547 90.9489 111.202 93.4025 108.245 93.4025H34.1094C31.2542 93.4025 28.8068 91.0512 28.8068 88.0867V63.6555" stroke="#1676EE" stroke-width="3" stroke-linecap="round" stroke-linejoin="round"/>
<g filter="url(#filter0_d_1577_7012)">
<path d="M107.153 53H83.8378C81.5689 53 79.3783 53.7828 77.6571 55.1915L71.5544 60.2002C69.8332 61.6088 67.6426 62.3913 65.3737 62.3913H38.8507C36.1906 62.3913 34 64.5828 34 67.2436C34 67.4784 34.0001 67.7131 34.0783 67.9479L38.9291 93.774C39.3202 96.2001 41.3544 98 43.7798 98H100.268C102.693 98 104.727 96.2784 105.119 93.8523L111.926 58.5566C112.395 55.8957 110.595 53.4696 107.935 53C107.701 53 107.388 53 107.153 53Z" fill="white"/>
</g>
<g filter="url(#filter1_d_1577_7012)">
<path d="M117.728 46.073H87.3395C84.3823 46.073 81.5271 47.0955 79.2837 48.9355L71.3296 55.4777C69.0862 57.3177 66.231 58.3398 63.2738 58.3398H28.7044C25.2372 58.3398 22.382 61.2022 22.382 64.6778C22.382 64.9844 22.3821 65.291 22.4841 65.5977L28.8064 99.3313C29.3163 102.5 31.9676 104.851 35.1288 104.851H108.754C111.915 104.851 114.567 102.602 115.076 99.4336L123.948 53.3309C124.56 49.8553 122.215 46.6863 118.748 46.073C118.442 46.073 118.034 46.073 117.728 46.073Z" fill="white"/>
</g>
<path d="M58.8887 81.0334C60.6909 81.0334 62.1518 79.5686 62.1518 77.762C62.1518 75.9554 60.6909 74.4912 58.8887 74.4912C57.0865 74.4912 55.6255 75.9554 55.6255 77.762C55.6255 79.5686 57.0865 81.0334 58.8887 81.0334Z" fill="#1C3754"/>
<path d="M84.5867 80.9311C86.3889 80.9311 87.8499 79.4668 87.8499 77.6602C87.8499 75.8537 86.3889 74.3889 84.5867 74.3889C82.7845 74.3889 81.3236 75.8537 81.3236 77.6602C81.3236 79.4668 82.7845 80.9311 84.5867 80.9311Z" fill="#1C3754"/>
<path d="M67.7433 57.3372C64.1742 50.386 63.3584 41.9015 65.7038 34.337C68.0492 26.7725 73.4539 20.2303 80.2861 16.5502C82.4276 15.4258 84.773 14.5058 87.2204 14.4036C89.6678 14.3013 92.2171 15.1191 93.8487 17.0614C95.4803 18.9014 95.7862 21.8658 94.4605 23.9103C93.0329 25.8525 90.2796 26.5681 87.9342 26.057C84.2631 25.3414 81.2039 22.4792 80.2861 19.0036C79.3684 15.528 80.592 11.4391 83.3454 9.08797C85.1809 7.45241 87.6283 6.63462 89.9737 5.91906C101.191 2.64793 113.326 2.23904 124.747 4.69239" stroke="#C9D4E2" stroke-miterlimit="10" stroke-dasharray="4 4"/>
<path d="M74.8815 84.5286H68.6611V86.0619H74.8815V84.5286Z" fill="#1C3754"/>
<path d="M130.764 2.0347C130.662 3.56805 130.56 4.89695 129.438 5.20361C128.316 5.51028 127.807 4.48805 127.093 3.05693C126.379 1.72804 126.787 0.399137 128.01 0.092468C129.234 -0.214201 130.968 0.194691 130.764 2.0347Z" fill="#DAE2EB"/>
<path d="M129.642 9.19038C129.948 7.35036 130.254 6.43036 129.234 5.91924C128.113 5.40813 127.399 6.32813 126.277 7.55481C125.257 8.67926 125.869 10.2126 126.889 10.7237C128.011 11.3371 129.336 10.7237 129.642 9.19038Z" fill="#DAE2EB"/>
<path d="M130.968 5.91911C130.866 6.63467 130.356 7.14579 129.642 7.24801C129.336 7.24801 129.03 7.24801 128.622 7.24801C127.195 7.04356 126.073 6.12356 126.175 5.20355C126.277 4.28355 127.602 3.77243 129.132 3.97688C129.438 3.97688 129.744 4.0791 129.948 4.18132C130.662 4.38577 131.07 5.10133 130.968 5.91911C130.968 5.81689 130.968 5.91911 130.968 5.91911Z" fill="#1C3754"/>
<path d="M19.4093 34.0304C19.4093 32.2926 19.4093 30.6571 20.633 30.1459C21.9587 29.6348 22.6725 30.8615 23.5902 32.4971C24.508 34.0304 24.1001 35.5638 22.7745 36.0749C21.6527 36.586 19.4093 36.2793 19.4093 34.0304Z" fill="#DAE2EB"/>
<path d="M20.1222 25.6481C19.9182 27.7948 19.6123 28.9193 20.9379 29.4304C22.2636 29.9415 22.9774 28.817 24.2011 27.1815C25.2209 25.7504 24.507 24.0126 23.1814 23.5015C21.8557 22.9903 20.3261 23.9103 20.1222 25.6481Z" fill="#DAE2EB"/>
<path d="M19 29.6349C19 28.8171 19.6118 28.2038 20.3257 28.1016C20.6316 27.9993 21.0395 27.9993 21.4474 28.1016C23.079 28.2038 24.4046 29.1238 24.3027 30.146C24.2007 31.1683 22.875 31.8838 21.2434 31.6794C20.9375 31.6794 20.6316 31.5771 20.3257 31.4749C19.5099 31.2705 19 30.4527 19 29.6349Z" fill="#1C3754"/>
<path d="M25.8318 29.9417C36.3352 29.9417 55.7103 36.075 56.0162 58.4619" stroke="#C9D4E2" stroke-miterlimit="10" stroke-dasharray="4 4"/>
<defs>
<filter id="filter0_d_1577_7012" x="24" y="34" width="98" height="65" filterUnits="userSpaceOnUse" color-interpolation-filters="sRGB">
<feFlood flood-opacity="0" result="BackgroundImageFix"/>
<feColorMatrix in="SourceAlpha" type="matrix" values="0 0 0 0 0 0 0 0 0 0 0 0 0 0 0 0 0 0 127 0" result="hardAlpha"/>
<feOffset dy="-9"/>
<feGaussianBlur stdDeviation="5"/>
<feColorMatrix type="matrix" values="0 0 0 0 0.397708 0 0 0 0 0.47749 0 0 0 0 0.575 0 0 0 0.13 0"/>
<feBlend mode="normal" in2="BackgroundImageFix" result="effect1_dropShadow_1577_7012"/>
<feBlend mode="normal" in="SourceGraphic" in2="effect1_dropShadow_1577_7012" result="shape"/>
</filter>
<filter id="filter1_d_1577_7012" x="0.382019" y="35.073" width="145.663" height="102.778" filterUnits="userSpaceOnUse" color-interpolation-filters="sRGB">
<feFlood flood-opacity="0" result="BackgroundImageFix"/>
<feColorMatrix in="SourceAlpha" type="matrix" values="0 0 0 0 0 0 0 0 0 0 0 0 0 0 0 0 0 0 127 0" result="hardAlpha"/>
<feOffset dy="11"/>
<feGaussianBlur stdDeviation="11"/>
<feColorMatrix type="matrix" values="0 0 0 0 0.397708 0 0 0 0 0.47749 0 0 0 0 0.575 0 0 0 0.18 0"/>
<feBlend mode="normal" in2="BackgroundImageFix" result="effect1_dropShadow_1577_7012"/>
<feBlend mode="normal" in="SourceGraphic" in2="effect1_dropShadow_1577_7012" result="shape"/>
</filter>
<linearGradient id="paint0_linear_1577_7012" x1="49.8497" y1="8.70472" x2="45.5021" y2="9.13564" gradientUnits="userSpaceOnUse">
<stop stop-color="#14EE97"/>
<stop offset="0.0001" stop-color="#FF3D00"/>
<stop offset="0.488065" stop-color="#FF511A"/>
<stop offset="1" stop-color="#FFBFAB"/>
</linearGradient>
<linearGradient id="paint1_linear_1577_7012" x1="132.134" y1="33.4171" x2="128.042" y2="33.8226" gradientUnits="userSpaceOnUse">
<stop stop-color="#14EE97"/>
<stop offset="0.0001" stop-color="#FF3D00"/>
<stop offset="0.488065" stop-color="#FF511A"/>
<stop offset="1" stop-color="#FFBFAB"/>
</linearGradient>
</defs>
</svg>
