<svg width="120" height="112" viewBox="0 0 120 112" fill="none" xmlns="http://www.w3.org/2000/svg">
<path d="M62.2109 108C90.4356 108 113.316 85.1891 113.316 57.0505C113.316 28.9119 90.4356 6.10107 62.2109 6.10107C33.9861 6.10107 11.1055 28.9119 11.1055 57.0505C11.1055 85.1891 33.9861 108 62.2109 108Z" fill="#EAEEF9"/>
<g filter="url(#filter0_d_274_1135)">
<path d="M111.363 40.0332V88.5223C111.363 88.7273 111.363 88.8298 111.363 89.0349C111.26 91.8027 109.923 94.2631 107.969 95.9033C106.221 97.441 103.959 98.3636 101.491 98.3636H23.2393C21.4913 98.3636 19.9489 97.9536 18.5093 97.1335C17.8923 96.8259 17.2753 96.4159 16.7612 95.9033C15.6301 94.9807 14.7046 93.7505 14.1905 92.3153C13.7792 91.2902 13.4707 90.265 13.4707 89.1374V40.0332C13.4707 40.0332 17.5838 36.5477 23.445 31.7295C29.5118 26.6038 37.5324 20.0429 44.5247 14.1997C48.535 10.8167 48.1237 11.2267 54.2933 5.99853C59.0234 2.00049 65.9129 2.00049 70.6429 5.99853C71.8769 7.02367 73.1108 8.15133 74.3447 9.17647C76.9154 11.2267 79.7946 13.6871 82.7766 16.1474C89.0491 21.3756 95.9386 27.1164 101.388 31.627C106.941 36.2402 110.951 39.6231 111.363 40.0332Z" fill="#526DFF"/>
</g>
<path d="M101.387 31.6271V49.0545L84.318 59.3059L79.1766 62.3813L68.3797 68.8397L63.2383 71.9151L61.0789 73.2478L59.0223 71.9151L54.1894 68.8397L43.9067 62.3813L39.0738 59.3059L23.2383 49.362V31.7296C29.3051 26.6039 37.3257 20.043 44.318 14.1997L82.5699 16.1475C89.1509 21.3757 96.0403 27.1165 101.387 31.6271Z" fill="#465DD9"/>
<path d="M97.9947 17.7876V48.3368L82.3649 57.6656L77.7376 60.4334L67.8662 66.2767L63.2389 69.0446L61.2852 70.1723L59.4343 69.0446L55.0127 66.2767L45.6554 60.4334L41.2338 57.6656L26.8379 48.6443V17.7876C26.8379 14.6097 29.4086 11.9443 32.6991 11.9443H92.1335C95.3212 11.9443 97.9947 14.6097 97.9947 17.7876Z" fill="white"/>
<path d="M85.2442 34.6006H41.3368C40.617 34.6006 40 33.9854 40 33.165C40 32.3447 40.617 31.7295 41.3368 31.7295H85.2442C85.964 31.7295 86.581 32.3447 86.581 33.165C86.581 33.9854 85.964 34.6006 85.2442 34.6006Z" fill="#E7EBF2"/>
<path d="M85.2442 43.2119H41.3368C40.617 43.2119 40 42.5967 40 41.7764C40 40.9561 40.617 40.3408 41.3368 40.3408H85.2442C85.964 40.3408 86.581 40.9561 86.581 41.7764C86.581 42.5967 85.964 43.2119 85.2442 43.2119Z" fill="#E7EBF2"/>
<path d="M85.2442 51.823H41.3368C40.617 51.823 40 51.2078 40 50.3875C40 49.5671 40.617 48.9519 41.3368 48.9519H85.2442C85.964 48.9519 86.581 49.5671 86.581 50.3875C86.581 51.2078 85.964 51.823 85.2442 51.823Z" fill="#E7EBF2"/>
<path d="M82.3655 57.6655L77.7382 60.4341H45.656L41.2344 57.6655H41.3372H82.3655Z" fill="#E7EBF2"/>
<path d="M67.8652 66.2769L63.2379 69.148H59.4333L55.0117 66.2769H67.8652Z" fill="#E7EBF2"/>
<path d="M75.7836 24.7593H50.8993C50.1795 24.7593 49.5625 24.144 49.5625 23.3237C49.5625 22.5034 50.1795 21.8882 50.8993 21.8882H75.7836C76.5034 21.8882 77.1203 22.5034 77.1203 23.3237C77.1203 24.144 76.5034 24.7593 75.7836 24.7593Z" fill="#4FBF67"/>
<path opacity="0.67" d="M13.8828 39.8281L60.8751 42.9035L110.644 39.8281L108.793 48.7468C108.793 48.7468 62.0062 73.1452 62.3147 73.1452C62.6232 73.1452 13.9856 44.2362 13.9856 44.2362L13.8828 39.8281Z" fill="url(#paint0_linear_274_1135)"/>
<path d="M111.363 40.0332V89.0349C111.26 91.8028 109.923 94.2631 107.969 95.9033C106.221 97.441 103.959 98.3637 101.491 98.3637H23.2393C21.4913 98.3637 19.9489 97.9536 18.5093 97.1335C17.8923 96.826 17.2753 96.4159 16.7612 95.9033C15.6301 94.9807 14.7046 93.7505 14.1905 92.3153C13.7792 91.2902 13.4707 90.2651 13.4707 89.1374V89.0349V40.0332L57.2753 67.4044L61.08 69.7623L62.4167 68.9422L63.6507 68.2245L111.363 40.0332Z" fill="#738DFF"/>
<path d="M108.072 95.9033C106.324 97.441 104.062 98.3637 101.594 98.3637H23.2393C21.4913 98.3637 19.9489 97.9536 18.5093 97.1335C17.8923 96.826 17.2753 96.4159 16.7612 95.9033C15.6301 94.9807 14.7046 93.7505 14.1905 92.3153C13.7792 91.2902 13.4707 90.2651 13.4707 89.1374V89.0349V40.0332L18.6121 43.1086L62.4167 69.0447L63.6507 69.7623L63.7535 69.8648L103.034 93.0329L108.072 95.9033Z" fill="url(#paint1_linear_274_1135)"/>
<path d="M63.6516 68.2244V71.6074L18.5102 97.1333C17.8932 96.8258 17.2762 96.4157 16.7621 95.9032C15.631 94.9805 14.7055 93.7504 14.1914 92.3152L58.0989 66.3792L61.9035 68.737L62.4176 68.942L63.6516 68.2244Z" fill="url(#paint2_linear_274_1135)"/>
<path d="M13.4707 40.0332L62.4167 69.0447" stroke="#A6BDFF" stroke-width="0.5" stroke-miterlimit="10"/>
<path d="M111.363 40.0332V89.0349C111.26 91.8028 109.924 94.2631 107.97 95.9033C106.222 97.441 103.96 98.3637 101.492 98.3637H23.2399C21.4918 98.3637 19.9494 97.9536 18.5098 97.1335C17.8928 96.826 17.2759 96.4159 16.7617 95.9033L21.8003 92.9304L61.0805 69.7623L62.4172 68.9422L63.6512 68.2245L106.222 43.0061L111.363 40.0332Z" fill="url(#paint3_linear_274_1135)"/>
<path d="M111.363 40.0332L63.6512 68.2245L62.4172 68.9421L61.0805 69.7623L16.7617 95.9033" stroke="#99B3FF" stroke-width="0.5" stroke-miterlimit="10"/>
<path d="M99.6407 74.2734H73.6252C73.0083 74.2734 72.4941 73.7607 72.4941 73.1455C72.4941 72.5303 73.0083 72.0176 73.6252 72.0176H99.6407C100.258 72.0176 100.772 72.5303 100.772 73.1455C100.772 73.7607 100.258 74.2734 99.6407 74.2734Z" fill="url(#paint4_linear_274_1135)"/>
<path d="M99.6407 81.7568H73.6252C73.0083 81.7568 72.4941 81.2441 72.4941 80.6289C72.4941 80.0137 73.0083 79.501 73.6252 79.501H99.6407C100.258 79.501 100.772 80.0137 100.772 80.6289C100.772 81.2441 100.258 81.7568 99.6407 81.7568Z" fill="url(#paint5_linear_274_1135)"/>
<path d="M116.093 35.42C118.251 35.42 120 33.6759 120 31.5244C120 29.373 118.251 27.6289 116.093 27.6289C113.935 27.6289 112.186 29.373 112.186 31.5244C112.186 33.6759 113.935 35.42 116.093 35.42Z" fill="#EAEEF9"/>
<path d="M13.3676 21.1706C14.7873 21.1706 15.9383 20.0232 15.9383 18.6078C15.9383 17.1923 14.7873 16.0449 13.3676 16.0449C11.9478 16.0449 10.7969 17.1923 10.7969 18.6078C10.7969 20.0232 11.9478 21.1706 13.3676 21.1706Z" fill="#EAEEF9"/>
<path d="M1.74807 27.7324C2.71351 27.7324 3.49614 26.952 3.49614 25.9893C3.49614 25.0265 2.71351 24.2461 1.74807 24.2461C0.782639 24.2461 0 25.0265 0 25.9893C0 26.952 0.782639 27.7324 1.74807 27.7324Z" fill="#EAEEF9"/>
<path d="M111.567 18.916C112.476 18.916 113.212 18.1815 113.212 17.2754C113.212 16.3693 112.476 15.6348 111.567 15.6348C110.658 15.6348 109.922 16.3693 109.922 17.2754C109.922 18.1815 110.658 18.916 111.567 18.916Z" fill="#EAEEF9"/>
<path d="M118.149 72.3259C119.058 72.3259 119.794 71.5914 119.794 70.6853C119.794 69.7792 119.058 69.0447 118.149 69.0447C117.241 69.0447 116.504 69.7792 116.504 70.6853C116.504 71.5914 117.241 72.3259 118.149 72.3259Z" fill="#EAEEF9"/>
<path opacity="0.3" d="M106.221 43.0061V48.1318L111.363 45.569V40.0332L106.221 43.0061ZM106.221 68.3271V76.6307L111.363 74.0678V65.7642L106.221 68.3271ZM106.221 82.474V88.8298C106.119 89.5474 105.913 90.3676 105.502 90.9827C105.399 91.0852 105.399 91.1877 105.296 91.2902L111.363 88.2148V79.9111L106.221 82.474ZM104.987 97.3385L103.445 98.1586C105.193 97.8511 106.633 97.031 107.969 96.0058C107.969 96.0058 107.969 96.0058 108.072 96.0058C108.175 96.0058 108.175 95.9033 108.278 95.8008L104.987 97.3385ZM13.4707 82.1664V89.0349V89.1374C13.4707 89.5475 13.5735 89.9575 13.6764 90.3676L18.6121 87.8047V79.5011L13.4707 82.1664ZM13.4707 53.6676V61.9712L18.6121 59.4083V51.1047L13.4707 53.6676ZM13.4707 40.0332V47.8243L18.6121 45.2614V43.1086L13.4707 40.0332ZM13.4707 67.917V76.2206L18.6121 73.6578V65.3542L13.4707 67.917ZM23.2393 93.238C22.7252 93.238 22.2111 93.1354 21.7998 93.0329C21.4913 92.9304 21.2856 92.8279 20.9771 92.7254C20.9771 92.7254 20.9771 92.7254 20.8743 92.7254L15.9386 95.2882C16.2471 95.5958 16.4527 95.8008 16.7612 96.1083C17.2753 96.6209 17.8923 96.9285 18.5093 97.3385C18.9206 97.6461 19.4347 97.8511 19.9489 97.9536L29.5118 93.3405H23.2393V93.238ZM42.4681 93.238L31.6712 98.3637H43.3936L54.1905 93.238H42.4681ZM66.9411 93.238L56.1442 98.3637H67.8666L78.6635 93.238H66.9411ZM91.517 93.238L80.7201 98.3637H90.1802L100.977 93.238H91.517ZM106.221 54.0776V62.3813L111.363 59.8184V51.5148L106.221 54.0776Z" fill="#526DFF"/>
<path d="M104.988 97.3389L108.176 95.6982C108.073 95.8008 108.073 95.8008 107.97 95.9033C107.97 95.9033 107.97 95.9033 107.867 95.9033L104.988 97.3389Z" fill="#526DFF"/>
<g filter="url(#filter1_d_274_1135)">
<path d="M81.7026 50.9159C80.681 50.9159 78.2292 49.9925 77.4119 49.6848C73.1213 47.7356 66.0725 41.9905 62.1905 41.9905C58.3085 41.9905 51.2596 47.633 46.969 49.6848C46.2539 49.9925 43.7 50.9159 42.6784 50.9159C41.0439 51.0185 39.818 52.4547 40.0223 53.9936C40.4309 57.7894 41.4525 64.5604 44.1086 73.2806C47.5819 84.0526 57.1847 90.5158 60.8624 92.6702C61.7818 93.1832 62.8034 93.1832 63.7228 92.6702C67.4005 90.5158 77.0033 84.0526 80.2724 73.2806C82.9285 64.5604 83.95 57.7894 84.3587 53.9936C84.563 52.4547 83.3371 51.0185 81.7026 50.9159Z" fill="url(#paint6_linear_274_1135)"/>
</g>
<path d="M80.3753 54.7117C79.9667 57.7894 79.1494 63.0215 77.3106 69.5873C77.1063 70.408 76.7998 71.3313 76.4933 72.1521C73.7351 81.0774 65.9711 86.7199 62.1913 88.9769C61.7826 88.7717 61.374 88.464 60.9654 88.1562C56.9812 85.4888 50.4431 80.1541 47.9914 72.1521C45.6417 64.4578 44.6202 58.1997 44.1094 54.7117C45.9482 54.3013 48.1957 53.4806 48.6043 53.2754C50.341 52.4547 52.282 51.3262 54.3251 49.9925C56.5726 48.5562 60.7611 45.9915 62.1913 45.9915C63.6215 45.9915 67.8099 48.6588 70.0574 49.9925C72.1005 51.2236 74.0415 52.4547 75.7782 53.2754C76.289 53.378 78.5365 54.3013 80.3753 54.7117Z" fill="url(#paint7_linear_274_1135)"/>
<path d="M77.3092 69.4845C77.1048 70.3053 76.7984 71.2286 76.4919 72.0493C73.7337 80.9747 65.9697 86.6172 62.1898 88.8742C61.7812 88.669 61.3726 88.3612 60.964 88.0534L53.4043 66.7146L56.9798 66.0991L61.4747 69.3819L71.1797 62.4058L74.2444 61.3799C74.2444 61.4825 75.5725 65.0731 77.3092 69.4845Z" fill="url(#paint8_linear_274_1135)"/>
<path d="M59.9437 73.7934L53.8143 67.6379C53.4057 67.2276 53.4057 66.4069 53.8143 65.9965L56.2661 63.5343C56.6747 63.124 57.492 63.124 57.9006 63.5343L60.761 66.4069C61.1696 66.8172 61.7826 66.8172 62.0891 66.4069L69.7509 58.7126C70.1595 58.3022 70.9768 58.3022 71.3854 58.7126L73.8372 61.1747C74.2458 61.5851 74.2458 62.4058 73.8372 62.8162L63.0085 73.7934C62.089 74.6141 60.761 74.6141 59.9437 73.7934Z" fill="url(#paint9_linear_274_1135)"/>
<defs>
<filter id="filter0_d_274_1135" x="5.4707" y="0" width="113.893" height="111.364" filterUnits="userSpaceOnUse" color-interpolation-filters="sRGB">
<feFlood flood-opacity="0" result="BackgroundImageFix"/>
<feColorMatrix in="SourceAlpha" type="matrix" values="0 0 0 0 0 0 0 0 0 0 0 0 0 0 0 0 0 0 127 0" result="hardAlpha"/>
<feOffset dy="5"/>
<feGaussianBlur stdDeviation="4"/>
<feColorMatrix type="matrix" values="0 0 0 0 0.1125 0 0 0 0 0.295916 0 0 0 0 1 0 0 0 0.22 0"/>
<feBlend mode="normal" in2="BackgroundImageFix" result="effect1_dropShadow_274_1135"/>
<feBlend mode="normal" in="SourceGraphic" in2="effect1_dropShadow_274_1135" result="shape"/>
</filter>
<filter id="filter1_d_274_1135" x="32" y="38.9905" width="60.3809" height="67.0645" filterUnits="userSpaceOnUse" color-interpolation-filters="sRGB">
<feFlood flood-opacity="0" result="BackgroundImageFix"/>
<feColorMatrix in="SourceAlpha" type="matrix" values="0 0 0 0 0 0 0 0 0 0 0 0 0 0 0 0 0 0 127 0" result="hardAlpha"/>
<feOffset dy="5"/>
<feGaussianBlur stdDeviation="4"/>
<feColorMatrix type="matrix" values="0 0 0 0 0.1125 0 0 0 0 0.295916 0 0 0 0 1 0 0 0 0.22 0"/>
<feBlend mode="normal" in2="BackgroundImageFix" result="effect1_dropShadow_274_1135"/>
<feBlend mode="normal" in="SourceGraphic" in2="effect1_dropShadow_274_1135" result="shape"/>
</filter>
<linearGradient id="paint0_linear_274_1135" x1="62.2039" y1="83.6375" x2="62.2039" y2="42.0343" gradientUnits="userSpaceOnUse">
<stop stop-color="#4F6AFF"/>
<stop offset="1" stop-color="#657EFF" stop-opacity="0"/>
</linearGradient>
<linearGradient id="paint1_linear_274_1135" x1="14.5703" y1="69.1716" x2="110.04" y2="69.1716" gradientUnits="userSpaceOnUse">
<stop stop-color="#83A6FF"/>
<stop offset="1" stop-color="#5A78FF"/>
</linearGradient>
<linearGradient id="paint2_linear_274_1135" x1="41.756" y1="84.5809" x2="37.9229" y2="78.9693" gradientUnits="userSpaceOnUse">
<stop stop-color="#4F6AFF"/>
<stop offset="1" stop-color="#657EFF" stop-opacity="0"/>
</linearGradient>
<linearGradient id="paint3_linear_274_1135" x1="107.35" y1="69.1716" x2="13.6977" y2="69.1716" gradientUnits="userSpaceOnUse">
<stop stop-color="#83A6FF"/>
<stop offset="1" stop-color="#5A78FF"/>
</linearGradient>
<linearGradient id="paint4_linear_274_1135" x1="72.4286" y1="73.15" x2="100.77" y2="73.15" gradientUnits="userSpaceOnUse">
<stop stop-color="#83A6FF"/>
<stop offset="1" stop-color="#5A78FF"/>
</linearGradient>
<linearGradient id="paint5_linear_274_1135" x1="72.4286" y1="80.5872" x2="100.77" y2="80.5872" gradientUnits="userSpaceOnUse">
<stop stop-color="#83A6FF"/>
<stop offset="1" stop-color="#5A78FF"/>
</linearGradient>
<linearGradient id="paint6_linear_274_1135" x1="59.7637" y1="57.8098" x2="74.2339" y2="78.0255" gradientUnits="userSpaceOnUse">
<stop stop-color="#44C560"/>
<stop offset="1" stop-color="#32A24A"/>
</linearGradient>
<linearGradient id="paint7_linear_274_1135" x1="75.4207" y1="79.0565" x2="53.6292" y2="51.4234" gradientUnits="userSpaceOnUse">
<stop stop-color="#67E281"/>
<stop offset="1" stop-color="#2AA444"/>
</linearGradient>
<linearGradient id="paint8_linear_274_1135" x1="62.0828" y1="65.8014" x2="68.5962" y2="76.2509" gradientUnits="userSpaceOnUse">
<stop stop-color="#4FBF67"/>
<stop offset="1" stop-color="#4FBF67" stop-opacity="0"/>
</linearGradient>
<linearGradient id="paint9_linear_274_1135" x1="67.6928" y1="68.427" x2="61.538" y2="61.7728" gradientUnits="userSpaceOnUse">
<stop offset="0.0113208" stop-color="#CEFFD9"/>
<stop offset="1" stop-color="white"/>
</linearGradient>
</defs>
</svg>
