<svg width="36" height="36" viewBox="0 0 36 36" fill="none" xmlns="http://www.w3.org/2000/svg">
<g clip-path="url(#clip0_274_1950)">
<rect width="36" height="36" rx="8" fill="#FF511A"/>
<circle cx="32" cy="34" r="16" fill="#FF6B3D"/>
<path d="M28.5582 14.1274C28.6401 14.5275 28.6831 14.9418 28.6831 15.3661C28.6831 15.3661 28.6831 15.366 28.6831 15.3661C28.6831 22.8965 21.8489 26.4358 19.3448 27.4799C18.7614 27.7231 18.117 27.7231 17.5337 27.4799C17.2206 27.3493 16.84 27.1799 16.4134 26.9684C13.4277 25.4886 8.19531 21.9552 8.19531 15.3662C8.19531 11.9716 10.9471 9.21973 14.3417 9.21973C15.9158 9.21973 17.3518 9.81152 18.4392 10.7848C19.5266 9.81152 20.9626 9.21973 22.5368 9.21973C23.8632 9.21973 25.0916 9.63992 26.0959 10.3545C27.3405 11.2399 28.2411 12.5774 28.5582 14.1274Z" fill="white"/>
</g>
<defs>
<clipPath id="clip0_274_1950">
<rect width="36" height="36" rx="8" fill="white"/>
</clipPath>
</defs>
</svg>
