<svg width="36" height="36" viewBox="0 0 36 36" fill="none" xmlns="http://www.w3.org/2000/svg">
<g clip-path="url(#clip0_274_1936)">
<rect width="36" height="36" rx="8" fill="#FF511A"/>
<circle cx="32" cy="34" r="16" fill="#FF6B3D"/>
<path fill-rule="evenodd" clip-rule="evenodd" d="M15.3661 10.2441C15.3661 9.67836 14.9074 9.21973 14.3417 9.21973C13.7759 9.21973 13.3173 9.67836 13.3173 10.2441V11.2685C12.8471 11.2688 12.4371 11.2717 12.0931 11.2998C11.6881 11.3329 11.2853 11.406 10.8977 11.6035C10.3195 11.8981 9.84932 12.3682 9.55469 12.9465C9.35719 13.3341 9.28413 13.7369 9.25104 14.1419C9.2197 14.5256 9.21971 14.9915 9.21973 15.5314V15.5315V23.3958V23.3959C9.21971 23.9358 9.2197 24.4017 9.25104 24.7854C9.28413 25.1904 9.35719 25.5932 9.55469 25.9808C9.84932 26.559 10.3195 27.0292 10.8977 27.3238C11.2853 27.5213 11.6881 27.5943 12.0931 27.6274C12.4768 27.6588 12.9428 27.6588 13.4827 27.6588H13.4827H23.396H23.396C23.9359 27.6588 24.4017 27.6588 24.7854 27.6274C25.1904 27.5943 25.5932 27.5213 25.9808 27.3238C26.559 27.0292 27.0292 26.559 27.3238 25.9808C27.5213 25.5932 27.5944 25.1904 27.6274 24.7854C27.6588 24.4017 27.6588 23.9358 27.6588 23.3958V15.5314C27.6588 14.9914 27.6588 14.5256 27.6274 14.1419C27.5944 13.7369 27.5213 13.3341 27.3238 12.9465C27.0292 12.3682 26.559 11.8981 25.9808 11.6035C25.5932 11.406 25.1904 11.3329 24.7854 11.2998C24.4414 11.2717 24.0314 11.2688 23.5612 11.2685V10.2441C23.5612 9.67836 23.1026 9.21973 22.5368 9.21973C21.971 9.21973 21.5124 9.67836 21.5124 10.2441V11.2685H15.3661V10.2441ZM15.3661 17.4148C15.3661 17.9806 14.9074 18.4392 14.3417 18.4392C13.7759 18.4392 13.3173 17.9806 13.3173 17.4148C13.3173 16.8491 13.7759 16.3905 14.3417 16.3905C14.9074 16.3905 15.3661 16.8491 15.3661 17.4148ZM18.4392 18.4392C19.005 18.4392 19.4636 17.9806 19.4636 17.4148C19.4636 16.8491 19.005 16.3905 18.4392 16.3905C17.8735 16.3905 17.4149 16.8491 17.4149 17.4148C17.4149 17.9806 17.8735 18.4392 18.4392 18.4392ZM22.5368 18.4392C23.1026 18.4392 23.5612 17.9806 23.5612 17.4148C23.5612 16.8491 23.1026 16.3905 22.5368 16.3905C21.971 16.3905 21.5124 16.8491 21.5124 17.4148C21.5124 17.9806 21.971 18.4392 22.5368 18.4392ZM18.4392 22.5368C19.005 22.5368 19.4636 22.0782 19.4636 21.5124C19.4636 20.9467 19.005 20.488 18.4392 20.488C17.8735 20.488 17.4149 20.9467 17.4149 21.5124C17.4149 22.0782 17.8735 22.5368 18.4392 22.5368ZM15.3661 21.5124C15.3661 22.0782 14.9074 22.5368 14.3417 22.5368C13.7759 22.5368 13.3173 22.0782 13.3173 21.5124C13.3173 20.9467 13.7759 20.488 14.3417 20.488C14.9074 20.488 15.3661 20.9467 15.3661 21.5124Z" fill="white"/>
</g>
<defs>
<clipPath id="clip0_274_1936">
<rect width="36" height="36" rx="8" fill="white"/>
</clipPath>
</defs>
</svg>
