<svg width="36" height="36" viewBox="0 0 36 36" fill="none" xmlns="http://www.w3.org/2000/svg">
<g clip-path="url(#clip0_274_1943)">
<rect width="36" height="36" rx="8" fill="#FF511A"/>
<circle cx="32" cy="34" r="16" fill="#FF6B3D"/>
<path d="M17.0144 9.15654C17.5317 7.87425 19.3471 7.87425 19.8644 9.15654L21.8489 14.0758C21.9214 14.2555 22.0891 14.3789 22.2823 14.3947L27.2671 14.8014C28.6187 14.9117 29.1752 16.5911 28.157 17.4867L24.3744 20.8136C24.2344 20.9367 24.1724 21.1262 24.2124 21.3082L25.422 26.8062C25.7242 28.1796 24.1756 29.2037 23.0301 28.3881L18.7365 25.331C18.5587 25.2044 18.3202 25.2044 18.1423 25.331L13.8488 28.3881C12.7032 29.2037 11.1547 28.1796 11.4568 26.8062L12.6664 21.3082C12.7065 21.1262 12.6444 20.9367 12.5044 20.8136L8.72174 17.4867C7.70343 16.5911 8.25994 14.9117 9.61156 14.8014L14.5966 14.3947C14.7897 14.3789 14.9574 14.2555 15.0299 14.0758L17.0144 9.15654Z" fill="white"/>
</g>
<defs>
<clipPath id="clip0_274_1943">
<rect width="36" height="36" rx="8" fill="white"/>
</clipPath>
</defs>
</svg>
