<svg width="56" height="56" viewBox="0 0 56 56" fill="none" xmlns="http://www.w3.org/2000/svg">
<path fill-rule="evenodd" clip-rule="evenodd" d="M33.5795 19.1727C35.6086 18.4066 37.5933 20.3913 36.8272 22.4204L32.0534 35.0639C31.0352 37.7605 27.1706 37.6094 26.366 34.8416L25.3465 31.3345C25.251 31.0059 24.9941 30.7489 24.6654 30.6534L21.1583 29.6339C18.3905 28.8293 18.2394 24.9647 20.936 23.9465L33.5795 19.1727ZM34.9561 21.714C35.1142 21.2953 34.7047 20.8857 34.286 21.0438L21.6425 25.8176C20.7436 26.157 20.794 27.4452 21.7166 27.7134L25.2237 28.7329C26.2096 29.0195 26.9804 29.7904 27.267 30.7762L28.2865 34.2833C28.5547 35.2059 29.8429 35.2563 30.1823 34.3574L34.9561 21.714Z" fill="#FF511A"/>
<rect x="0.5" y="0.5" width="55" height="55" rx="7.5" stroke="#FF511A"/>
</svg>
